<?xml version="1.0" encoding="UTF-8"?>
<svg id="Layer_2" data-name="Layer 2" xmlns="http://www.w3.org/2000/svg" viewBox="0 0 27 32">
  <defs>
    <style>
      .cls-1, .cls-2, .cls-3, .cls-4, .cls-5, .cls-6 {
        stroke-width: 0px;
      }

      .cls-2 {
        fill: gray;
      }

      .cls-3 {
        fill: silver;
      }

      .cls-4 {
        fill: #eda6c3;
      }

      .cls-5 {
        fill: #fff;
      }

      .cls-6 {
        fill: #fae1e9;
      }
    </style>
  </defs>
  <g id="Layer_1-2" data-name="Layer 1">
    <g>
      <g>
        <polygon class="cls-5" points="25 7 25 30 3 30 3 1 20 1 20 7 25 7"/>
        <polygon class="cls-3" points="26 7 26 31 3 31 3 30 25 30 25 7 26 7"/>
        <g>
          <polygon class="cls-1" points="26 6 26 5 25 5 25 6 21 6 21 7 26 7 26 31 2 31 2 32 27 32 27 6 26 6"/>
          <rect class="cls-1" x="24" y="4" width="1" height="1"/>
          <rect class="cls-1" x="23" y="3" width="1" height="1"/>
          <rect class="cls-1" x="22" y="2" width="1" height="1"/>
          <rect class="cls-1" x="21" y="1" width="1" height="1"/>
        </g>
        <rect class="cls-3" x="25" y="7" width="1" height="24"/>
        <g>
          <polygon class="cls-2" points="21 2 21 0 2 0 2 31 3 31 3 1 20 1 20 7 21 7 21 3 22 3 22 2 21 2"/>
          <rect class="cls-2" x="22" y="3" width="1" height="1"/>
          <rect class="cls-2" x="23" y="4" width="1" height="1"/>
          <rect class="cls-2" x="24" y="5" width="1" height="1"/>
        </g>
        <g>
          <rect class="cls-3" x="21" y="3" width="1" height="1"/>
          <rect class="cls-3" x="22" y="4" width="1" height="1"/>
          <rect class="cls-3" x="23" y="5" width="1" height="1"/>
        </g>
        <polygon class="cls-5" points="22 5 22 4 21 4 21 5 21 6 22 6 23 6 23 5 22 5"/>
      </g>
      <g>
        <polygon class="cls-6" points="10 14 10 27 6 27 6 26 5 26 5 25 3 25 3 24 2 24 2 23 1 23 1 22 0 22 0 19 1 19 1 18 3 18 3 17 4 17 4 16 5 16 5 15 6 15 6 14 7 14 7 13 9 13 9 14 10 14"/>
        <polygon class="cls-3" points="11 17 11 15 7 15 7 16 6 16 6 24 7 24 7 28 8 28 8 29 10 29 10 28 11 28 11 27 12 27 12 17 11 17"/>
        <rect class="cls-3" x="9" y="15" width="2" height="1"/>
        <polygon class="cls-5" points="10 16 8 16 8 25 9 25 9 26 10 26 10 16"/>
        <rect class="cls-3" x="8" y="15" width="1" height="2"/>
        <g>
          <polygon class="cls-1" points="7 27 7 28 9 28 9 27 9 26 8 26 8 27 7 27"/>
          <rect class="cls-1" x="6" y="26" width="1" height="1"/>
          <rect class="cls-1" x="5" y="25" width="1" height="1"/>
          <rect class="cls-1" x="4" y="24" width="1" height="1"/>
          <rect class="cls-1" x="3" y="23" width="1" height="1"/>
          <polygon class="cls-1" points="3 20 2 20 2 22 1 22 1 23 3 23 3 22 3 20"/>
          <polygon class="cls-1" points="7 13 7 14 8 14 8 15 9 15 9 14 9 13 7 13"/>
          <rect class="cls-1" y="21" width="1" height="1"/>
          <rect class="cls-1" x="7" y="15" width="1" height="1"/>
          <polygon class="cls-1" points="7 20 8 20 8 19 7 19 7 17 6 17 6 25 7 25 7 23 8 23 8 22 7 22 7 20"/>
          <rect class="cls-1" x="8" y="20" width="1" height="2"/>
        </g>
        <rect class="cls-3" x="2" y="23" width="1" height="1"/>
        <rect class="cls-3" x="3" y="24" width="1" height="1"/>
        <rect class="cls-2" x="9" y="14" width="1" height="1"/>
        <g>
          <rect class="cls-2" x="7" y="21" width="1" height="1"/>
          <rect class="cls-2" x="9" y="26" width="1" height="1"/>
          <rect class="cls-2" x="12" y="21" width="5" height="1"/>
          <rect class="cls-2" x="13" y="17" width="2" height="1"/>
          <rect class="cls-2" x="15" y="16" width="1" height="1"/>
          <rect class="cls-2" x="13" y="25" width="2" height="1"/>
          <rect class="cls-2" x="15" y="26" width="1" height="1" transform="translate(31 53) rotate(180)"/>
          <rect class="cls-2" x="12" y="18" width="1" height="1"/>
          <rect class="cls-2" x="12" y="24" width="1" height="1"/>
          <rect class="cls-2" x="10" y="16" width="1" height="10"/>
          <rect class="cls-2" x="7" y="16" width="1" height="1"/>
          <rect class="cls-2" x="9" y="14" width="1" height="1"/>
        </g>
        <g>
          <rect class="cls-4" x="5" y="24" width="1" height="1"/>
          <rect class="cls-4" x="4" y="23" width="1" height="1"/>
          <rect class="cls-4" x="3" y="22" width="1" height="1"/>
          <rect class="cls-4" x="6" y="14" width="1" height="1"/>
          <rect class="cls-4" x="5" y="15" width="1" height="1"/>
          <rect class="cls-4" x="4" y="16" width="1" height="1"/>
          <rect class="cls-4" x="3" y="17" width="1" height="1"/>
          <rect class="cls-4" y="19" width="1" height="2"/>
          <polygon class="cls-4" points="3 20 3 18 2 18 1 18 1 19 2 19 2 20 3 20"/>
          <polygon class="cls-4" points="6 25 6 26 7 26 7 27 8 27 8 25 6 25"/>
        </g>
      </g>
    </g>
  </g>
</svg>