<svg width="226" height="326" viewBox="0 0 226 326" fill="none" xmlns="http://www.w3.org/2000/svg">
<g clip-path="url(#clip0_209_6777)">
<path d="M82.1604 201.12C82.4304 201.12 82.7104 201.15 82.9804 201.2C84.7204 201.56 86.3604 204.93 87.3804 206.38C93.5104 215.09 94.5704 218.32 97.0204 228.68C98.8204 236.32 102.51 249 104.59 256.57C105.08 258.34 105.64 260.2 105.18 261.98C104.83 263.35 103.9 264.49 102.92 265.5C97.7704 270.81 90.5604 273.63 83.3804 275.44C76.2004 277.25 68.8004 278.22 61.8004 280.62C59.8104 281.3 57.8304 282.1 55.7304 282.3C54.3904 282.42 53.1604 282.72 52.0004 282.72C49.9704 282.72 48.1304 281.81 46.2004 277.46C44.2904 273.16 42.3004 268.9 40.1304 264.67C38.9204 262.31 37.7104 259.95 36.8404 257.44C35.8904 254.7 34.5904 250.63 33.5904 247.91C32.5004 244.93 31.6504 243.37 30.3904 240.46C28.8204 236.82 27.8804 232.93 27.1704 229.03C27.0704 228.49 26.9804 227.91 27.2004 227.41C27.4604 226.81 30.3804 223.19 30.9604 222.9C36.5904 220.09 40.9804 217.15 47.0504 215.5C59.6304 212.09 67.4504 206.87 78.6804 202.06C79.7904 201.59 80.9704 201.11 82.1504 201.11M82.1604 200.12C80.8104 200.12 79.5604 200.61 78.2904 201.15C74.5004 202.77 71.0904 204.44 67.8004 206.06C61.2504 209.27 55.0704 212.31 46.8004 214.55C42.2504 215.78 38.6404 217.72 34.8204 219.77C33.4404 220.51 32.0204 221.27 30.5304 222.02C29.6404 222.47 26.6004 226.33 26.3004 227.02C25.9404 227.83 26.1004 228.67 26.2004 229.23C27.0804 234.04 28.0904 237.63 29.4804 240.87C29.9204 241.89 30.3104 242.75 30.6804 243.56C31.3704 245.07 31.9604 246.37 32.6604 248.27C33.2904 249.98 34.0304 252.2 34.7404 254.35C35.1504 255.59 35.5504 256.78 35.9004 257.79C36.7904 260.36 38.0404 262.8 39.2404 265.15C41.1404 268.85 43.0604 272.89 45.2804 277.89C47.1104 281.99 49.1204 283.74 52.0004 283.74C52.7704 283.74 53.5204 283.63 54.3204 283.51C54.8104 283.44 55.3104 283.36 55.8204 283.31C57.7004 283.14 59.4704 282.52 61.1704 281.91C61.4804 281.8 61.8004 281.69 62.1104 281.58C66.4604 280.09 71.0804 279.14 75.5404 278.21C78.1904 277.66 80.9404 277.09 83.6104 276.42C92.7404 274.12 99.1004 270.87 103.62 266.21C104.56 265.24 105.7 263.91 106.13 262.24C106.64 260.29 106.09 258.32 105.61 256.57L105.54 256.31C104.98 254.27 104.3 251.85 103.58 249.27C101.57 242.12 99.3004 234.02 97.9904 228.46C95.4804 217.81 94.2704 214.45 88.2004 205.81C87.9904 205.51 87.7304 205.09 87.4604 204.65C86.3404 202.84 84.9604 200.59 83.1904 200.22C82.8604 200.15 82.5204 200.12 82.1704 200.12H82.1604Z" fill="#409D55"/>
<path d="M118.03 202.86C118.28 202.86 118.5 202.93 118.68 203.08C128.79 211.48 130.71 218.37 134.19 227.25C139.2 240.03 144.41 254.94 142.81 270.23C141.79 279.98 137.91 289.58 131.57 297.99C125.53 306.01 117.56 312.6 108.52 317.05C107.04 317.78 105.52 318.46 103.98 319.09C94.8303 322.81 84.7003 324.7 74.1603 324.7C66.5703 324.7 58.7703 323.72 50.9603 321.75C47.8603 320.97 43.8003 319.81 39.9803 317.77C33.8103 314.48 29.1603 309.42 25.7903 305.38C13.2003 290.26 1.7203 258.59 1.0003 252.72C0.790303 250.98 5.0003 249.61 8.1403 249.61C9.7203 249.61 11.0303 249.95 11.3803 250.77C17.4503 265.03 22.4703 284.88 33.9103 298.62C36.6603 301.92 40.4003 306.03 44.9503 308.45C47.7603 309.95 51.0203 310.87 53.5403 311.51C60.5103 313.27 67.4503 314.14 74.1703 314.14C83.3403 314.14 92.1103 312.52 99.9903 309.31C101.3 308.78 102.59 308.2 103.85 307.58C119.5 299.87 130.67 284.78 132.3 269.13C133.65 256.19 128.9 242.71 124.35 231.1C121.29 223.29 117.33 215.56 112.25 211.45C110.38 209.94 115.55 202.85 118.03 202.85M118.03 201.86C115.61 201.86 112.15 206.1 111.17 208.86C110.49 210.8 111.04 211.77 111.62 212.24C115.82 215.63 119.68 221.92 123.42 231.47C127.93 242.98 132.63 256.32 131.31 269.03C129.71 284.34 118.76 299.12 103.41 306.68C102.18 307.29 100.9 307.86 99.6203 308.38C91.8603 311.53 83.3003 313.13 74.1803 313.13C67.4903 313.13 60.6303 312.26 53.7903 310.53C51.3203 309.91 48.1403 309.01 45.4303 307.56C41.0303 305.21 37.3803 301.2 34.6903 297.97C26.3803 287.99 21.4203 274.53 17.0503 262.65C15.4403 258.28 13.9203 254.15 12.3103 250.36C11.8203 249.21 10.3803 248.6 8.1503 248.6C5.5103 248.6 1.9803 249.51 0.640303 251.03C0.0303026 251.72 -0.0396974 252.39 0.0203026 252.83C0.800303 259.19 12.6003 291.06 25.0403 306.01C28.4603 310.12 33.2103 315.27 39.5303 318.65C43.4503 320.74 47.5803 321.92 50.7403 322.72C58.5703 324.7 66.4603 325.7 74.1903 325.7C84.9603 325.7 95.1203 323.79 104.39 320.02C105.95 319.39 107.49 318.69 108.99 317.96C118.17 313.44 126.26 306.75 132.39 298.6C138.83 290.04 142.79 280.27 143.83 270.34C145.45 254.82 140.19 239.77 135.14 226.89C134.81 226.05 134.49 225.22 134.18 224.41C131.23 216.72 128.69 210.08 119.34 202.31C118.98 202.01 118.54 201.86 118.05 201.86H118.03Z" fill="#409D55"/>
<path d="M13.8105 256.84C20.9905 258.25 28.6205 257.33 35.2305 254.19C35.5305 254.05 35.8305 253.9 36.1205 253.75" stroke="#409D55" stroke-linecap="round" stroke-linejoin="round"/>
<path d="M118.35 218.39C116.09 220.96 113.14 222.93 110 224.35C105.85 226.23 101.35 227.22 96.8804 228.13C96.8104 228.14 96.7504 228.16 96.6904 228.17" stroke="#409D55" stroke-linecap="round" stroke-linejoin="round"/>
<path d="M124.85 289.19C118.46 288.32 113.4 282.83 109.31 277.63C106.57 274.15 103.89 270.62 101.29 267.03C101.25 266.98 101.21 266.92 101.17 266.86" stroke="#409D55" stroke-linecap="round" stroke-linejoin="round"/>
<path d="M79.6006 277.47C82.0606 281.88 84.5206 286.31 86.4706 290.96C89.2806 297.65 90.9806 304.72 92.4106 311.85" stroke="#409D55" stroke-linecap="round" stroke-linejoin="round"/>
<path d="M57.6104 312.44C61.7804 303.39 63.7504 293.32 63.2404 283.36" stroke="#409D55" stroke-linecap="round" stroke-linejoin="round"/>
<path d="M135.19 236.17C131.33 239.14 126.53 239.87 122.07 240.36C112.31 241.45 102.38 242.21 92.6204 240.44C85.2604 239.11 78.0804 237.56 70.9804 234.29C58.7004 228.63 49.9504 219.69 41.5204 209.69C35.1904 202.18 29.5904 194.08 22.7404 186.99C15.9304 179.93 10.8704 171.59 7.15042 162.6C3.92042 154.77 2.38042 146.45 2.69042 137.89C2.73042 136.87 2.94042 135.95 3.31042 134.94C4.08042 132.88 4.49042 130.55 3.36042 128.46C2.93042 127.66 2.85042 126.76 3.11042 126.28C5.67042 121.5 3.02042 116.78 2.95042 112.05C2.88042 107.3 4.58042 102.71 3.66042 97.81C3.33042 96.06 5.05042 93.55 5.62042 91.31C7.14042 85.36 10.0304 79.84 11.8304 74.1C13.7404 68.02 16.7604 62.62 19.6804 57.23C21.3004 54.23 23.2304 51.08 25.5304 48.28C28.6604 44.47 31.2404 40.21 34.2804 36.28C38.8204 30.4 44.5604 25.71 50.2504 21.36C54.5704 18.06 59.5904 14.97 65.2304 13.17C68.7804 12.04 72.3104 10.18 75.8404 8.62C80.3004 6.64 84.9604 5.66 89.6304 4.42C94.5104 3.12 99.3604 2.5 104.26 2.22C109.73 1.9 115.12 0.950002 120.63 0.880002C124.5 0.830002 128.39 0.640002 132.28 0.530002C135.89 0.430002 139.35 0.680002 142.84 1.4C145.14 1.87 147.44 2.34 149.76 2.66C153.52 3.18 156.63 5.13 159.55 7.28C162.38 9.37 165.54 10.89 168.43 12.89C180.05 20.92 189.28 31 196.74 42.88C198.33 45.41 200.93 47.39 200.41 50.92C200.33 51.46 200.95 52.5 201.46 52.67C206.8 54.43 207.28 59.92 209.59 63.78C211.26 66.58 212.62 69.81 214.28 72.69C218.84 80.59 221.73 89.21 223.38 97.91C225.28 107.87 225.71 118.17 224.81 128.44C224.32 134.02 224.57 139.73 223.19 145.15C221.17 153.05 219.92 161.14 217.13 168.85C215.51 173.31 213.03 177.31 210.44 181.15C205.28 188.8 199.41 195.93 193.13 202.75C187.12 209.28 179.67 213.86 172.66 219.04C167.4 222.93 161.82 226.38 155.92 229.22C149.96 232.09 143.68 234.2 137.36 236.14C136.44 236.42 135.18 236.43 135.55 234.72" fill="white"/>
<path d="M135.19 236.17C131.33 239.14 126.53 239.87 122.07 240.36C112.31 241.45 102.38 242.21 92.6204 240.44C85.2604 239.11 78.0804 237.56 70.9804 234.29C58.7004 228.63 49.9504 219.69 41.5204 209.69C35.1904 202.18 29.5904 194.08 22.7404 186.99C15.9304 179.93 10.8704 171.59 7.15042 162.6C3.92042 154.77 2.38042 146.45 2.69042 137.89C2.73042 136.87 2.94042 135.95 3.31042 134.94C4.08042 132.88 4.49042 130.55 3.36042 128.46C2.93042 127.66 2.85042 126.76 3.11042 126.28C5.67042 121.5 3.02042 116.78 2.95042 112.05C2.88042 107.3 4.58042 102.71 3.66042 97.81C3.33042 96.06 5.05042 93.55 5.62042 91.31C7.14042 85.36 10.0304 79.84 11.8304 74.1C13.7404 68.02 16.7604 62.62 19.6804 57.23C21.3004 54.23 23.2304 51.08 25.5304 48.28C28.6604 44.47 31.2404 40.21 34.2804 36.28C38.8204 30.4 44.5604 25.71 50.2504 21.36C54.5704 18.06 59.5904 14.97 65.2304 13.17C68.7804 12.04 72.3104 10.18 75.8404 8.62C80.3004 6.64 84.9604 5.66 89.6304 4.42C94.5104 3.12 99.3604 2.5 104.26 2.22C109.73 1.9 115.12 0.950002 120.63 0.880002C124.5 0.830002 128.39 0.640002 132.28 0.530002C135.89 0.430002 139.35 0.680002 142.84 1.4C145.14 1.87 147.44 2.34 149.76 2.66C153.52 3.18 156.63 5.13 159.55 7.28C162.38 9.37 165.54 10.89 168.43 12.89C180.05 20.92 189.28 31 196.74 42.88C198.33 45.41 200.93 47.39 200.41 50.92C200.33 51.46 200.95 52.5 201.46 52.67C206.8 54.43 207.28 59.92 209.59 63.78C211.26 66.58 212.62 69.81 214.28 72.69C218.84 80.59 221.73 89.21 223.38 97.91C225.28 107.87 225.71 118.17 224.81 128.44C224.32 134.02 224.57 139.73 223.19 145.15C221.17 153.05 219.92 161.14 217.13 168.85C215.51 173.31 213.03 177.31 210.44 181.15C205.28 188.8 199.41 195.93 193.13 202.75C187.12 209.28 179.67 213.86 172.66 219.04C167.4 222.93 161.82 226.38 155.92 229.22C149.96 232.09 143.68 234.2 137.36 236.14C136.44 236.42 135.18 236.43 135.55 234.72" stroke="#409D55" stroke-miterlimit="10"/>
</g>
<defs>
<clipPath id="clip0_209_6777">
<rect width="225.76" height="325.7" fill="white"/>
</clipPath>
</defs>
</svg>
