<svg width="226" height="326" viewBox="0 0 226 326" fill="none" xmlns="http://www.w3.org/2000/svg">
<path d="M60.0903 106.89C60.6703 108.64 60.4803 110.69 60.6703 112.42C60.9703 115.11 62.0703 133.69 61.9603 135.83C61.7303 140.65 58.9703 144.83 53.7403 145.7C50.5003 146.24 47.3903 146.47 44.4303 144.59C42.8103 143.56 41.7403 142.06 41.3703 140.38C41.1403 139.34 41.1603 138.09 41.1103 136.94C40.8803 132.21 41.4903 127.51 41.5303 122.79C41.5503 120.43 41.5603 118.07 41.5303 115.72C41.5103 114.24 41.5803 112.19 41.1603 110.68C41.0103 110.13 41.4803 109.4 41.6603 108.75" stroke="#409D55" stroke-linecap="round" stroke-linejoin="round"/>
<path d="M55.9402 103.13C57.4902 103.13 58.8802 103.45 59.9602 104.77C60.5002 105.44 60.0902 107.47 59.0702 108.76C57.3802 110.91 55.3702 111.06 53.1902 111.38C52.7102 111.45 52.2402 111.48 51.7602 111.48C50.0702 111.48 48.3702 111.13 46.6802 111.08C45.0002 111.03 43.5402 110 42.1202 109.16C41.3902 108.73 41.5602 106.96 42.2402 106.28C44.2702 104.23 46.8902 103.72 49.5902 103.68C51.3702 103.66 53.1002 103.29 54.8602 103.17C55.2302 103.14 55.6002 103.13 55.9502 103.13M55.9402 102.13C55.6002 102.13 55.2202 102.14 54.7802 102.17C54.0202 102.22 53.2602 102.32 52.5402 102.41C51.5202 102.54 50.5602 102.66 49.5702 102.68C47.3102 102.71 44.0202 103.04 41.5202 105.57C40.7802 106.32 40.5602 107.57 40.6702 108.42C40.7602 109.14 41.0902 109.71 41.6102 110.01C41.7902 110.12 41.9702 110.23 42.1602 110.34C43.4602 111.13 44.9302 112.02 46.6502 112.07C47.3902 112.09 48.1302 112.18 48.9202 112.26C49.8402 112.36 50.8002 112.47 51.7702 112.47C52.3302 112.47 52.8502 112.43 53.3502 112.36L53.7802 112.3C55.8802 112 58.0502 111.69 59.8702 109.37C61.0602 107.85 61.6902 105.29 60.7502 104.13C59.2802 102.32 57.3102 102.12 55.9602 102.12L55.9402 102.13Z" fill="#409D55"/>
<path d="M162.11 140.2C161.75 140.61 161.11 143.31 161.03 143.75C160.76 145.21 161.06 146.8 161.75 148.15C162.31 149.26 164.29 149.36 165.47 149.89" stroke="#409D55" stroke-linecap="round" stroke-linejoin="round"/>
<path d="M165.9 135.29C166.71 135.29 167.65 135.43 168.83 135.65C171.23 136.1 172.9 137.06 174.06 139.17C175.39 141.58 174.77 146.7 170.64 150.46C168.52 152.4 167.77 151.61 165.64 153.48C163.26 155.55 151.47 206.28 151.04 208.12C150.23 211.59 150.09 213.03 148.64 213.03C148.47 213.03 148.29 213.01 148.09 212.97C145.33 212.29 145.53 212.43 146.46 208.67C146.81 207.23 160.45 161.97 160.65 160.75C161.08 158.13 162.67 153.71 161.63 151.42C161.34 150.78 158.89 147.39 158.8 146.73C158.42 144.04 158.61 143.05 159.54 140.53C160.06 139.11 160.61 138.71 161.6 137.58C163.07 135.89 164.19 135.29 165.9 135.29ZM165.9 134.29C163.89 134.29 162.53 135 160.85 136.92C160.66 137.13 160.49 137.32 160.34 137.49C159.65 138.25 159.1 138.85 158.61 140.18C157.62 142.86 157.41 143.99 157.82 146.87C157.9 147.41 158.37 148.2 159.77 150.33C160.16 150.92 160.64 151.65 160.73 151.84C161.36 153.24 160.71 156.01 160.18 158.24C159.98 159.09 159.79 159.9 159.67 160.6C159.48 161.53 154.41 178.51 150.7 190.91C147.56 201.4 145.64 207.86 145.49 208.44L145.3 209.2C144.86 210.97 144.63 211.85 145.1 212.64C145.55 213.38 146.34 213.58 147.67 213.91L147.85 213.96C147.85 213.96 147.89 213.96 147.91 213.97C148.18 214.02 148.41 214.04 148.64 214.04C150.72 214.04 151.13 212.22 151.76 209.46C151.84 209.12 151.92 208.75 152.01 208.36L152.04 208.22C157.8 183.54 164.72 156.12 166.33 154.21C167.21 153.44 167.79 153.22 168.47 152.96C169.23 152.66 170.1 152.33 171.32 151.21C175.64 147.27 176.56 141.65 174.94 138.7C173.7 136.45 171.88 135.21 169.02 134.68C167.6 134.42 166.7 134.31 165.9 134.31V134.29Z" fill="#409D55"/>
</svg>
