<svg width="226" height="326" viewBox="0 0 226 326" fill="none" xmlns="http://www.w3.org/2000/svg">
<path d="M151.861 166.09C152.801 167.54 151.901 168.87 151.461 170.15C150.581 172.7 149.841 175.28 149.401 177.94C149.241 178.94 148.851 179.87 148.531 180.82C147.461 184.04 145.811 186.97 144.141 189.88C143.391 191.18 142.581 192.54 141.331 193.51C140.771 193.94 140.351 194.52 139.981 195.16C139.211 196.49 138.121 197.58 137.011 198.64C135.041 200.54 133.111 202.48 131.071 204.31C129.391 205.81 127.471 206.53 125.401 206.86C122.311 207.35 119.211 207.84 116.071 207.84C112.521 207.84 108.961 207.92 105.421 207.67C103.241 207.52 101.051 207.08 98.9407 206.34C97.8007 205.94 96.8507 205.22 96.0207 204.54C94.5207 203.31 92.7207 202.7 91.1607 201.64C90.3807 201.11 89.5107 200.68 88.7707 200.07C87.7107 199.19 86.5407 198.53 85.1907 198.11C84.4507 197.88 83.8207 197.27 83.1407 196.83C80.7107 195.23 78.5307 193.29 76.7307 191.04C75.6007 189.64 74.4607 188.2 73.7407 186.44C73.1307 184.96 72.0107 183.7 71.2607 182.24C70.4907 180.74 69.4607 179.27 69.1507 177.66C68.7707 175.63 67.8707 173.7 67.9007 171.57C67.9207 170.42 67.6607 169.25 67.5007 168.1C67.3807 167.23 67.3407 165.47 68.0107 164.79" stroke="#409D55" stroke-linecap="round" stroke-linejoin="round"/>
<path d="M112.8 126.13C114.28 126.13 116.39 126.2 116.56 126.24C117.79 126.48 119.02 126.23 120.3 126.62C121.84 127.09 125.29 127.79 125.29 127.79C125.29 127.79 125.29 127.79 125.3 127.79C125.8 127.79 128.51 130.01 129.35 130.32C130.42 130.72 131.31 131.68 132.26 131.99C133.83 132.49 134.89 133.47 135.91 134.52C137.22 135.88 138.91 136.55 140.52 137.3C141.53 137.77 141.73 138.73 142.47 139.35C144.29 140.85 145.93 142.62 147.27 144.58C147.94 145.55 148.56 146.61 149.07 147.68C149.81 149.26 150.91 150.7 151.24 152.46C151.31 152.81 152.38 156.78 152.52 158.08C152.66 159.39 152.92 164.33 151.73 165.97C150.9 167.11 150.1 167.64 149.47 168.62C147.81 171.19 146.29 173.85 144.09 176.05C141.71 178.44 139.33 180.81 136.57 182.79C135.62 183.47 134.58 183.97 133.67 184.67C130.17 187.37 126.28 189.27 122.05 190.53C121.41 190.72 120.78 190.98 120.13 191.12C117.56 191.67 114.96 191.98 112.35 192.2C109.73 192.42 107.1 192.59 104.47 192.59C102.59 192.59 100.7 192.5 98.8204 192.28C97.4704 192.12 96.0504 192.26 94.7504 191.72C93.5404 191.21 92.3204 190.68 91.0304 190.43C89.8404 190.19 89.1904 189.22 88.3004 188.6C86.5304 187.36 84.7404 186.11 83.1704 184.63C81.8904 183.43 80.7304 182.12 79.0704 181.43C78.9304 181.37 78.8304 181.2 78.7104 181.08C76.2104 178.67 74.2204 175.9 72.5904 172.83C71.2704 170.35 70.0204 167.81 68.1904 165.63C68.0204 165.43 67.9804 165.09 67.9404 164.8C67.7704 163.53 68.8304 156.03 69.5004 153.49C69.8904 152.03 70.3604 150.46 71.1404 149.31C72.3904 147.46 73.5604 145.55 74.8504 143.72C76.5704 141.3 78.9104 139.46 80.7404 137.15C83.0904 134.45 87.0804 133.03 88.5204 131.89C90.3704 130.43 91.9604 128.59 94.3704 127.91C96.2204 127.39 98.1204 127.07 100.01 126.92C100.38 126.89 100.75 126.89 101.12 126.89C101.38 126.89 101.65 126.89 101.91 126.89C102.59 126.89 103.28 126.87 103.95 126.73C106.56 126.18 109.22 126.27 111.85 126.16C112.1 126.15 112.41 126.15 112.77 126.15M112.8 125.13C112.43 125.13 112.1 125.13 111.84 125.15C111.22 125.18 110.6 125.19 109.97 125.2C107.94 125.25 105.85 125.29 103.77 125.73C103.22 125.85 102.64 125.87 101.94 125.87H101.55H101.15C100.8 125.87 100.39 125.87 99.9604 125.91C97.9404 126.07 95.9804 126.41 94.1304 126.93C92.0804 127.5 90.6204 128.78 89.2004 130.01C88.7604 130.39 88.3504 130.75 87.9204 131.09C87.5004 131.42 86.7604 131.82 85.9104 132.28C84.0304 133.29 81.6804 134.55 80.0004 136.48C79.1804 137.51 78.3004 138.41 77.3704 139.36C76.2304 140.53 75.0404 141.73 74.0504 143.13C73.2704 144.23 72.5304 145.37 71.8104 146.47C71.3204 147.23 70.8304 147.99 70.3204 148.73C69.4604 149.99 68.9604 151.63 68.5404 153.22C67.9204 155.58 66.7504 163.38 66.9604 164.92V164.97C67.0204 165.34 67.0804 165.84 67.4304 166.26C68.9904 168.11 70.1004 170.22 71.2704 172.45L71.7104 173.28C73.4804 176.61 75.5404 179.39 78.0204 181.78L78.0604 181.83C78.1704 181.97 78.3704 182.2 78.6904 182.33C79.8904 182.83 80.8304 183.74 81.8204 184.7C82.0404 184.91 82.2604 185.13 82.4904 185.34C84.0704 186.82 85.8604 188.08 87.5804 189.29L87.7204 189.39C87.9504 189.55 88.1804 189.76 88.4204 189.97C89.0404 190.53 89.7504 191.17 90.8404 191.38C91.9604 191.6 93.0204 192.05 94.1604 192.53L94.3704 192.62C95.4404 193.07 96.5004 193.12 97.5304 193.17C97.9404 193.19 98.3304 193.21 98.7104 193.25C100.52 193.46 102.4 193.57 104.47 193.57C107.37 193.57 110.24 193.36 112.43 193.17C115.53 192.91 118.04 192.56 120.33 192.07C120.8 191.97 121.24 191.82 121.67 191.68C121.89 191.61 122.11 191.53 122.33 191.47C126.79 190.14 130.8 188.12 134.27 185.45C134.72 185.1 135.21 184.81 135.74 184.49C136.2 184.21 136.68 183.92 137.14 183.59C140.01 181.53 142.44 179.1 144.79 176.75C146.69 174.84 148.11 172.61 149.47 170.46C149.74 170.03 150.02 169.59 150.3 169.16C150.57 168.74 150.9 168.4 151.28 168.01C151.66 167.61 152.1 167.16 152.54 166.56C154.17 164.32 153.52 158.04 153.51 157.98C153.41 157.02 152.9 154.96 152.42 153.1C152.31 152.68 152.24 152.38 152.22 152.28C151.96 150.92 151.33 149.78 150.71 148.67C150.44 148.19 150.19 147.73 149.97 147.27C149.47 146.21 148.84 145.12 148.09 144.03C146.7 142.01 145.02 140.18 143.1 138.6C142.9 138.44 142.74 138.21 142.56 137.94C142.21 137.44 141.78 136.82 140.94 136.42C140.74 136.33 140.54 136.24 140.34 136.14C138.95 135.51 137.65 134.91 136.63 133.85C135.62 132.8 134.39 131.64 132.57 131.06C132.23 130.95 131.83 130.68 131.41 130.38C130.91 130.04 130.35 129.64 129.7 129.4C129.43 129.3 128.52 128.66 127.91 128.24C126.39 127.18 125.89 126.85 125.4 126.82C124.87 126.71 121.93 126.1 120.59 125.69C119.73 125.43 118.91 125.41 118.18 125.39C117.68 125.38 117.2 125.37 116.75 125.28C116.4 125.21 113.89 125.15 112.8 125.15V125.13Z" fill="#409D55"/>
</svg>
