<?xml version="1.0" encoding="utf-8"?>
<!-- Generator: Adobe Illustrator 28.3.0, SVG Export Plug-In . SVG Version: 6.00 Build 0)  -->
<svg version="1.1" id="Layer_1" xmlns="http://www.w3.org/2000/svg" xmlns:xlink="http://www.w3.org/1999/xlink" x="0px" y="0px"
	 viewBox="0 0 9 8" style="enable-background:new 0 0 9 8;" xml:space="preserve">
<style type="text/css">
	.st0{fill-rule:evenodd;clip-rule:evenodd;fill:#FFFFFF;}
	.st1{fill-rule:evenodd;clip-rule:evenodd;fill:#7C7C7C;}
</style>
<path class="st0" d="M1,1h2v1h1v1h2V2h1V1h2v1H8v1H7v1H6v1h1v1h1v1h1v1H7V7H6V6H4v1H3v1H1V7h1V6h1V5h1V4H3V3H2V2H1V1z"/>
<path class="st1" d="M0,0h2v1h1v1h2V1h1V0h2v1H7v1H6v1H5v1h1v1h1v1h1v1H6V6H5V5H3v1H2v1H0V6h1V5h1V4h1V3H2V2H1V1H0V0z"/>
</svg>
