<svg width="33" height="32" viewBox="0 0 33 32" fill="none" xmlns="http://www.w3.org/2000/svg">
<g clip-path="url(#clip0_186_2797)">
<path d="M28.5 9H24.5V12H28.5V9Z" fill="#CCCC53"/>
<path d="M5.5 8V13H4.5V7H5.5V6H10.5V7H6.5V8H5.5Z" fill="#FFFF89"/>
<path d="M5.5 6H4.5V7H5.5V6Z" fill="#FFFF89"/>
<path d="M10.5 7V11H5.5V8H6.5V7H10.5Z" fill="#CCCC53"/>
<path d="M2.5 23V27H3.5V30H29.5V24H28.5V18H27.5V15H26.5V14H25.5V13H1.5V14H0.5V19H1.5V23H2.5Z" fill="#999900"/>
<path d="M25.5 11H7.5V12H25.5V11Z" fill="#E7E7D4"/>
<path d="M28.5 14H27.5V15H28.5V14Z" fill="#E7E7D4"/>
<path d="M29.5 16V15H28.5V18H29.5V17H30.5V16H29.5Z" fill="#E7E7D4"/>
<path d="M27.5 13H26.5V14H27.5V13Z" fill="#E7E7D4"/>
<path d="M26.5 12H25.5V13H26.5V12Z" fill="#E7E7D4"/>
<path d="M27.5 21V18H26.5V15H25.5V14H1.5V19H2.5V23H3.5V27H4.5L4.49 29H25.5H26.5H28.5V21H27.5Z" fill="#FFFF89"/>
<path d="M5.5 20H4.5V21H5.5V20Z" fill="#FFC991"/>
<path d="M5.5 25H4.5V26H5.5V25Z" fill="#FFC991"/>
<path d="M6.5 26H5.5V27H6.5V26Z" fill="#FFC991"/>
<path d="M8.5 26H7.5V27H8.5V26Z" fill="#FFC991"/>
<path d="M9.5 25H8.5V26H9.5V25Z" fill="#FFC991"/>
<path d="M8.5 23H7.5V24H8.5V23Z" fill="#FFC991"/>
<path d="M13.5 23H12.5V24H13.5V23Z" fill="#FFC991"/>
<path d="M14.5 24H13.5V25H14.5V24Z" fill="#FFC991"/>
<path d="M13.5 25H12.5V26H13.5V25Z" fill="#FFC991"/>
<path d="M19.5 23H18.5V24H19.5V23Z" fill="#FFC991"/>
<path d="M20.5 22H19.5V23H20.5V22Z" fill="#FFC991"/>
<path d="M21.5 21H20.5V22H21.5V21Z" fill="#FFC991"/>
<path d="M20.5 24H19.5V25H20.5V24Z" fill="#FFC991"/>
<path d="M24.5 17H23.5V18H24.5V17Z" fill="#FFC991"/>
<path d="M25.5 16H24.5V17H25.5V16Z" fill="#FFC991"/>
<path d="M25.5 18H24.5V19H25.5V18Z" fill="#FFC991"/>
<path d="M22.5 16H21.5V17H22.5V16Z" fill="#FFC991"/>
<path d="M23.5 15H22.5V16H23.5V15Z" fill="#FFC991"/>
<path d="M10.5 23H9.5V24H10.5V23Z" fill="#FFC991"/>
<path d="M11.5 24H10.5V25H11.5V24Z" fill="#FFC991"/>
<path d="M14.5 22H13.5V23H14.5V22Z" fill="#FFC991"/>
<path d="M16.5 21H15.5V22H16.5V21Z" fill="#FFC991"/>
<path d="M18.5 21H17.5V22H16.5V23H18.5V22V21Z" fill="#FFC991"/>
<path d="M17.5 20H16.5V21H17.5V20Z" fill="#FFC991"/>
<path d="M18.5 24H16.5V25H18.5V24Z" fill="#FFC991"/>
<path d="M12.5 26H10.5V27H12.5V26Z" fill="#FFC991"/>
<path d="M22.5 23H20.5V24H22.5V23Z" fill="#FFC991"/>
<path d="M23.5 21H22.5V23H23.5V21Z" fill="#FFC991"/>
<path d="M22.5 19H21.5V21H22.5V19Z" fill="#FFC991"/>
<path d="M25.5 21H24.5V23H25.5V21Z" fill="#FFC991"/>
<path d="M27.5 22V19H26.5V20H25.5V21H26.5V23H27.5V24H26.5V23H25.5V24H24.5V25H25.5V26H26.5V25H27.5V26H26.5V27H25.5V28H24.5V27H25.5V26H24.5V25H23.5V26H22.5V27H23.5V28H22.5V27H21.5V28H20.5V27H19.5V28H17.5V27H15.5V28H14.5V27H12.5V28H10.5V27H9.5V28H7.5V27H6.5V28H4.5V29H28.5V28V22H27.5Z" fill="#FFC991"/>
<path d="M20.5 20V19H19.5V20H18.5V21H20.5V20Z" fill="#FFC991"/>
<path d="M19.5 25H18.5V26H17.5V27H19.5V26V25Z" fill="#FFC991"/>
<path d="M20.5 25V26V27H21.5V26H22.5V25H20.5Z" fill="#FFC991"/>
<path d="M14.5 27H15.5V26H16.5V25H14.5V26V27Z" fill="#FFC991"/>
<path d="M24.5 20H23.5V21H24.5V20Z" fill="#FFC991"/>
<path d="M24.5 23H23.5V24H24.5V23Z" fill="#FFC991"/>
<path d="M23.5 24H22.5V25H23.5V24Z" fill="#FFC991"/>
<path d="M15.5 23H14.5V24H15.5V23Z" fill="#FFC991"/>
<path d="M13.5 17H12.5V18H13.5V17Z" fill="#FFC991"/>
<path d="M15.5 15H14.5V16H15.5V15Z" fill="#FFC991"/>
<path d="M17.5 15H16.5V16H17.5V15Z" fill="#FFC991"/>
<path d="M19.5 15H18.5V16H19.5V15Z" fill="#FFC991"/>
<path d="M18.5 17H17.5V18H18.5V17Z" fill="#FFC991"/>
<path d="M20.5 17H19.5V18H20.5V17Z" fill="#FFC991"/>
<path d="M16.5 18H15.5V19H16.5V18Z" fill="#FFC991"/>
<path d="M14.5 18H13.5V19H14.5V18Z" fill="#FFC991"/>
<path d="M7.5 22H6.5V23H7.5V22Z" fill="#FFC991"/>
<path d="M8.5 21H7.5V22H8.5V21Z" fill="#FFC991"/>
<path d="M8.5 19H7.5V20H8.5V19Z" fill="#FFC991"/>
<path d="M6.5 17H5.5V18H6.5V17Z" fill="#FFC991"/>
<path d="M10.5 17H9.5V18H10.5V17Z" fill="#FFC991"/>
<path d="M11.5 18H10.5V19H11.5V18Z" fill="#FFC991"/>
<path d="M12.5 15H11.5V16H12.5V15Z" fill="#FFC991"/>
<path d="M10.5 19H9.5V20H10.5V19Z" fill="#FFC991"/>
<path d="M10.5 21H9.5V22H10.5V21Z" fill="#FFC991"/>
<path d="M12.5 20H11.5V21H12.5V20Z" fill="#FFC991"/>
<path d="M14.5 20H13.5V21H14.5V20Z" fill="#FFC991"/>
<path d="M12.5 22H11.5V23H12.5V22Z" fill="#FFC991"/>
<path d="M6.5 23H5.5V24H6.5V23Z" fill="#FFC991"/>
<path d="M2.5 19V20V21V23H3.5V21V20V19H2.5Z" fill="#FFFBEF"/>
<path d="M3.5 23V24V25V26V27H4.5V26V25V24V23H3.5Z" fill="#FFFBEF"/>
<path d="M29.5 30H4.5V31H29.5V30Z" fill="#333300"/>
<path d="M30.5 19V30H29.5V24H28.5V20H29.5V19H30.5Z" fill="#333300"/>
<path d="M6.5 12H5.5V13H6.5V12Z" fill="#868686"/>
<path d="M7.5 11H6.5V12H7.5V11Z" fill="#868686"/>
<path d="M8.5 10H7.5V11H8.5V10Z" fill="#868686"/>
<path d="M9.5 9H8.5V10H9.5V9Z" fill="#868686"/>
<path d="M10.5 8H9.5V9H10.5V8Z" fill="#868686"/>
<path d="M11.5 7H10.5V8H11.5V7Z" fill="#868686"/>
<path d="M12.5 6H11.5V7H12.5V6Z" fill="#868686"/>
<path d="M13.5 5H12.5V6H13.5V5Z" fill="#868686"/>
<path d="M14.5 4H13.5V5H14.5V4Z" fill="#868686"/>
<path d="M15.5 3H14.5V4H15.5V3Z" fill="#868686"/>
<path d="M16.5 2H15.5V3H16.5V2Z" fill="#868686"/>
<path d="M25.5 12H6.5V13H25.5V12Z" fill="#C0C0C0"/>
<path d="M17.5 1H16.5V2H17.5V1Z" fill="#868686"/>
<path d="M11.5 12H10.5V13H11.5V12Z" fill="#00349F"/>
<path d="M12.5 11H11.5V12H12.5V11Z" fill="#00349F"/>
<path d="M13.5 10H12.5V11H13.5V10Z" fill="#00349F"/>
<path d="M14.5 9H13.5V10H14.5V9Z" fill="#00349F"/>
<path d="M15.5 8H14.5V9H15.5V8Z" fill="#00349F"/>
<path d="M12.5 12H11.5V13H12.5V12Z" fill="#A0A0A4"/>
<path d="M13.5 11H12.5V12H13.5V11Z" fill="#A0A0A4"/>
<path d="M14.5 10H13.5V11H14.5V10Z" fill="#A0A0A4"/>
<path d="M15.5 9H14.5V10H15.5V9Z" fill="#A0A0A4"/>
<path d="M16.5 8H15.5V9H16.5V8Z" fill="#A0A0A4"/>
<path d="M16.5 7H15.5V8H16.5V7Z" fill="#00349F"/>
<path d="M14.5 12H13.5V13H14.5V12Z" fill="#00349F"/>
<path d="M15.5 11H14.5V12H15.5V11Z" fill="#00349F"/>
<path d="M16.5 10H15.5V11H16.5V10Z" fill="#00349F"/>
<path d="M15.5 12H14.5V13H15.5V12Z" fill="#A0A0A4"/>
<path d="M16.5 11H15.5V12H16.5V11Z" fill="#A0A0A4"/>
<path d="M17.5 10H16.5V11H17.5V10Z" fill="#A0A0A4"/>
<path d="M17.5 9H16.5V10H17.5V9Z" fill="#00349F"/>
<path d="M17.5 12H16.5V13H17.5V12Z" fill="#00349F"/>
<path d="M18.5 11H17.5V12H18.5V11Z" fill="#00349F"/>
<path d="M18.5 12H17.5V13H18.5V12Z" fill="#A0A0A4"/>
<path d="M21.5 12H20.5V13H21.5V12Z" fill="#A0A0A4"/>
<path d="M26.5 13H25.5V14H26.5V13Z" fill="#C0C0C0"/>
<path d="M27.5 14H26.5V15H27.5V14Z" fill="#C0C0C0"/>
<path d="M29.5 18H28.5V19H29.5V18Z" fill="#C0C0C0"/>
<path d="M30.5 17H29.5V18H30.5V17Z" fill="#C0C0C0"/>
<path d="M31.5 16H30.5V17H31.5V16Z" fill="#C0C0C0"/>
<path d="M30.5 15H29.5V16H30.5V15Z" fill="#C0C0C0"/>
<path d="M29.5 14H28.5V15H29.5V14Z" fill="#C0C0C0"/>
<path d="M28.5 13H27.5V14H28.5V13Z" fill="#C0C0C0"/>
<path d="M27.5 12H26.5V13H27.5V12Z" fill="#C0C0C0"/>
<path d="M26.5 11H25.5V12H26.5V11Z" fill="#C0C0C0"/>
<path d="M25.5 10H24.5V11H25.5V10Z" fill="#C0C0C0"/>
<path d="M24.5 9H23.5V10H24.5V9Z" fill="#AEA98D"/>
<path d="M23.5 8H22.5V9H23.5V8Z" fill="#C0C0C0"/>
<path d="M22.5 7H21.5V8H22.5V7Z" fill="#C0C0C0"/>
<path d="M21.5 6H20.5V7H21.5V6Z" fill="#C0C0C0"/>
<path d="M20.5 5H19.5V6H20.5V5Z" fill="#C0C0C0"/>
<path d="M23.5 10V9H22.5V8H21.5V7H20.5V6H19.5V5H18.5V4H17.5V3H16.5H15.5V4H14.5V5H13.5V6H12.5V7H11.5V8H10.5V9H9.5V10H8.5V11H9.5H11.5H12.5V10H13.5V9H14.5V8H15.5V7H16.5V8V9H17.5V10V11H18.5V10H19.5V11H20.5H21.5H22.5H23.5H24.5V10H23.5Z" fill="#FFFBEF"/>
<path d="M16.5 9H15.5V10H16.5V9Z" fill="#FFFBEF"/>
<path d="M15.5 10H14.5V11H15.5V10Z" fill="#FFFBEF"/>
<path d="M19.5 4H18.5V5H19.5V4Z" fill="#C0C0C0"/>
<path d="M18.5 3H17.5V4H18.5V3Z" fill="#C0C0C0"/>
<path d="M29.5 13H28.5V14H29.5V13Z" fill="#555555"/>
<path d="M28.5 12H27.5V13H28.5V12Z" fill="#555555"/>
<path d="M27.5 11H26.5V12H27.5V11Z" fill="#555555"/>
<path d="M26.5 10H25.5V11H26.5V10Z" fill="#222222"/>
<path d="M30.5 14H29.5V15H30.5V14Z" fill="#222222"/>
<path d="M30.5 10H29.5V14H30.5V10Z" fill="#003434"/>
<path d="M29.5 9H28.5V10H29.5V9Z" fill="#003434"/>
<path d="M28.5 8H27.5V10H28.5V8Z" fill="#808000"/>
<path d="M29.5 10H28.5V13H29.5V10Z" fill="#808000"/>
<path d="M27.5 8H24.5V9H27.5V8Z" fill="#808000"/>
<path d="M31.5 15H30.5V16H31.5V15Z" fill="#222222"/>
<path d="M32.5 16H31.5V17H32.5V16Z" fill="#222222"/>
<path d="M31.5 17H30.5V18H31.5V17Z" fill="black"/>
<path d="M30.5 18H29.5V19H30.5V18Z" fill="black"/>
<path d="M29.5 19H28.5V20H29.5V19Z" fill="black"/>
<path d="M25.5 9H24.5V10H25.5V9Z" fill="#555555"/>
<path d="M24.5 8H23.5V9H24.5V8Z" fill="#555555"/>
<path d="M23.5 7H22.5V8H23.5V7Z" fill="#555555"/>
<path d="M22.5 6H21.5V7H22.5V6Z" fill="#555555"/>
<path d="M21.5 5H20.5V6H21.5V5Z" fill="#555555"/>
<path d="M20.5 4H19.5V5H20.5V4Z" fill="#555555"/>
<path d="M19.5 3H18.5V4H19.5V3Z" fill="#555555"/>
<path d="M18.5 2H17.5V3H18.5V2Z" fill="#555555"/>
<path d="M17.5 2H16.5V3H17.5V2Z" fill="#AEA98D"/>
<path d="M28.5 15H27.5V18H28.5V15Z" fill="#C0C0C0"/>
<path d="M19.5 11H18.5V12H19.5V11Z" fill="#A0A0A4"/>
<path d="M19.5 10H18.5V11H19.5V10Z" fill="#00349F"/>
<path d="M20.5 12H19.5V13H20.5V12Z" fill="#00349F"/>
<path d="M21.5 11H20.5V12H21.5V11Z" fill="#00349F"/>
<path d="M27.5 18H26.5V19H27.5V18Z" fill="#CCCC53"/>
<path d="M26.5 15H25.5V16H26.5V15Z" fill="#CCCC53"/>
<path d="M28.5 21H27.5V22H28.5V21Z" fill="#CCCC53"/>
<path d="M2.5 14H1.5V15V16V17V18V19H2.5V18V17V16V15H24.5V14H2.5Z" fill="#FFFBEF"/>
<path d="M5.5 6H4.5V7H5.5V6Z" fill="#808000"/>
<path d="M6.5 11H5.5V12H6.5V11Z" fill="#808000"/>
<path d="M7.5 10H6.5V11H7.5V10Z" fill="#808000"/>
<path d="M8.5 9H7.5V10H8.5V9Z" fill="#808000"/>
<path d="M9.5 8H8.5V9H9.5V8Z" fill="#808000"/>
<path d="M10.5 7H9.5V8H10.5V7Z" fill="#808000"/>
<path d="M11.5 6H10.5V7H11.5V6Z" fill="#CCCC53"/>
<path d="M4.5 7H3.5V13H4.5V7Z" fill="#808000"/>
<path d="M12.5 5H5.5V6H12.5V5Z" fill="#808000"/>
</g>
<defs>
<clipPath id="clip0_186_2797">
<rect width="32" height="32" fill="white" transform="translate(0.5)"/>
</clipPath>
</defs>
</svg>
