<?xml version="1.0" encoding="UTF-8"?>
<svg id="Layer_2" data-name="Layer 2" xmlns="http://www.w3.org/2000/svg" viewBox="0 0 29 32">
  <defs>
    <style>
      .cls-1, .cls-2, .cls-3, .cls-4, .cls-5, .cls-6, .cls-7, .cls-8, .cls-9, .cls-10, .cls-11, .cls-12 {
        stroke-width: 0px;
      }

      .cls-2 {
        fill: gray;
      }

      .cls-3 {
        fill: #0d1f0f;
      }

      .cls-4 {
        fill: #aad15d;
      }

      .cls-5 {
        fill: silver;
      }

      .cls-6 {
        fill: #95e2f9;
      }

      .cls-7 {
        fill: #7cb26b;
      }

      .cls-8 {
        fill: #8d0000;
      }

      .cls-9 {
        fill: #fff;
      }

      .cls-10 {
        fill: #fae1e9;
      }

      .cls-11 {
        fill: #008281;
      }

      .cls-12 {
        fill: #008200;
      }
    </style>
  </defs>
  <g id="Layer_1-2" data-name="Layer 1">
    <g>
      <g>
        <polygon class="cls-9" points="27 7 27 30 5 30 5 1 22 1 22 7 27 7"/>
        <polygon class="cls-5" points="28 7 28 31 5 31 5 30 27 30 27 7 28 7"/>
        <g>
          <polygon class="cls-1" points="28 6 28 5 27 5 27 6 23 6 23 7 28 7 28 31 4 31 4 32 29 32 29 6 28 6"/>
          <rect class="cls-1" x="26" y="4" width="1" height="1"/>
          <rect class="cls-1" x="25" y="3" width="1" height="1"/>
          <rect class="cls-1" x="24" y="2" width="1" height="1"/>
          <rect class="cls-1" x="23" y="1" width="1" height="1"/>
        </g>
        <rect class="cls-5" x="27" y="7" width="1" height="24"/>
        <g>
          <polygon class="cls-2" points="23 2 23 0 4 0 4 31 5 31 5 1 22 1 22 7 23 7 23 3 24 3 24 2 23 2"/>
          <rect class="cls-2" x="24" y="3" width="1" height="1"/>
          <rect class="cls-2" x="25" y="4" width="1" height="1"/>
          <rect class="cls-2" x="26" y="5" width="1" height="1"/>
        </g>
        <g>
          <rect class="cls-5" x="23" y="3" width="1" height="1"/>
          <rect class="cls-5" x="24" y="4" width="1" height="1"/>
          <rect class="cls-5" x="25" y="5" width="1" height="1"/>
        </g>
        <polygon class="cls-9" points="24 5 24 4 23 4 23 5 23 6 24 6 25 6 25 5 24 5"/>
      </g>
      <g>
        <rect class="cls-3" y="13" width="16" height="15"/>
        <rect class="cls-10" x="1" y="14" width="14" height="13"/>
        <rect class="cls-9" x="2" y="15" width="12" height="11"/>
        <rect class="cls-4" x="3" y="19" width="10" height="6"/>
        <polygon class="cls-11" points="3 18 6 18 6 21 5 21 5 22 3 22 3 18"/>
        <g>
          <rect class="cls-12" x="10" y="17" width="1" height="1"/>
          <rect class="cls-12" x="11" y="18" width="1" height="1"/>
          <rect class="cls-12" x="9" y="18" width="1" height="1"/>
          <rect class="cls-12" x="7" y="20" width="1" height="1"/>
          <rect class="cls-12" x="8" y="21" width="1" height="1"/>
          <rect class="cls-12" x="11" y="22" width="1" height="1"/>
          <rect class="cls-12" x="12" y="21" width="1" height="1"/>
          <rect class="cls-12" x="11" y="20" width="1" height="1"/>
          <rect class="cls-12" x="12" y="19" width="1" height="1"/>
        </g>
        <polygon class="cls-7" points="12 20 12 19 11 19 11 18 10 18 10 19 9 19 8 19 8 21 9 21 9 23 11 23 11 22 12 22 12 21 11 21 11 20 12 20"/>
        <g>
          <rect class="cls-7" x="6" y="19" width="1" height="1"/>
          <rect class="cls-7" x="5" y="20" width="1" height="1"/>
          <rect class="cls-4" x="4" y="17" width="1" height="1"/>
          <rect class="cls-4" x="5" y="18" width="1" height="1"/>
          <rect class="cls-4" x="3" y="18" width="1" height="1"/>
          <rect class="cls-7" x="4" y="21" width="1" height="1"/>
          <polygon class="cls-7" points="4 24 3 24 3 23 4 23 4 22 3 22 3 25 13 25 13 24 4 24"/>
        </g>
        <rect class="cls-8" x="10" y="23" width="1" height="2"/>
        <g>
          <rect class="cls-6" x="12" y="20" width="1" height="1"/>
          <polygon class="cls-6" points="12 16 11 16 10 16 3 16 3 17 3 18 4 18 4 17 5 17 5 18 6 18 6 19 7 19 7 20 8 20 8 19 9 19 9 18 10 18 10 17 11 17 11 18 12 18 12 19 13 19 13 16 12 16"/>
        </g>
      </g>
    </g>
  </g>
</svg>