<?xml version="1.0" encoding="UTF-8"?>
<svg id="Layer_2" data-name="Layer 2" xmlns="http://www.w3.org/2000/svg" viewBox="0 0 27 32">
  <defs>
    <style>
      .cls-1, .cls-2, .cls-3, .cls-4, .cls-5, .cls-6 {
        stroke-width: 0px;
      }

      .cls-2 {
        fill: #5a9b5c;
      }

      .cls-3 {
        fill: gray;
      }

      .cls-4 {
        fill: #0d1f0f;
      }

      .cls-5 {
        fill: silver;
      }

      .cls-6 {
        fill: #fff;
      }
    </style>
  </defs>
  <g id="Layer_1-2" data-name="Layer 1">
    <g>
      <g>
        <polygon class="cls-6" points="25 7 25 30 3 30 3 1 20 1 20 7 25 7"/>
        <polygon class="cls-5" points="26 7 26 31 3 31 3 30 25 30 25 7 26 7"/>
        <g>
          <polygon class="cls-1" points="26 6 26 5 25 5 25 6 21 6 21 7 26 7 26 31 2 31 2 32 27 32 27 6 26 6"/>
          <rect class="cls-1" x="24" y="4" width="1" height="1"/>
          <rect class="cls-1" x="23" y="3" width="1" height="1"/>
          <rect class="cls-1" x="22" y="2" width="1" height="1"/>
          <rect class="cls-1" x="21" y="1" width="1" height="1"/>
        </g>
        <rect class="cls-5" x="25" y="7" width="1" height="24"/>
        <g>
          <polygon class="cls-3" points="21 2 21 0 2 0 2 31 3 31 3 1 20 1 20 7 21 7 21 3 22 3 22 2 21 2"/>
          <rect class="cls-3" x="22" y="3" width="1" height="1"/>
          <rect class="cls-3" x="23" y="4" width="1" height="1"/>
          <rect class="cls-3" x="24" y="5" width="1" height="1"/>
        </g>
        <g>
          <rect class="cls-5" x="21" y="3" width="1" height="1"/>
          <rect class="cls-5" x="22" y="4" width="1" height="1"/>
          <rect class="cls-5" x="23" y="5" width="1" height="1"/>
        </g>
        <polygon class="cls-6" points="22 5 22 4 21 4 21 5 21 6 22 6 23 6 23 5 22 5"/>
      </g>
      <g>
        <rect class="cls-3" y="25" width="1" height="1"/>
        <rect class="cls-3" x="4" y="27" width="1" height="1"/>
        <rect class="cls-3" x="5" y="26" width="1" height="1"/>
        <rect class="cls-3" x="6" y="25" width="1" height="1"/>
        <rect class="cls-5" x="5" y="27" width="1" height="1"/>
        <rect class="cls-5" x="6" y="26" width="1" height="1"/>
        <rect class="cls-5" x="7" y="25" width="1" height="1"/>
        <rect class="cls-5" x="12" y="27" width="1" height="1"/>
        <rect class="cls-5" x="8" y="27" width="1" height="1"/>
        <rect class="cls-5" x="13" y="26" width="1" height="1"/>
        <rect class="cls-5" x="14" y="25" width="1" height="1"/>
        <rect class="cls-5" x="2" y="16" width="1" height="1"/>
        <rect class="cls-5" x="1" y="18" width="1" height="1"/>
        <rect class="cls-5" y="20" width="1" height="1"/>
        <rect class="cls-5" x="3" y="15" width="1" height="1"/>
        <rect class="cls-5" x="4" y="14" width="1" height="1"/>
        <rect class="cls-5" x="6" y="13" width="1" height="1"/>
        <rect class="cls-3" x="7" y="24" width="1" height="1"/>
        <rect class="cls-3" x="4" y="20" width="1" height="1"/>
        <rect class="cls-4" x="2" y="27" width="2" height="1"/>
        <rect class="cls-4" x="4" y="26" width="1" height="1"/>
        <rect class="cls-4" x="3" y="20" width="1" height="4"/>
        <rect class="cls-4" x="4" y="18" width="1" height="2"/>
        <rect class="cls-4" x="10" y="22" width="1" height="2"/>
        <rect class="cls-4" x="11" y="20" width="1" height="2"/>
        <rect class="cls-4" x="12" y="18" width="1" height="2"/>
        <rect class="cls-4" x="13" y="16" width="1" height="2"/>
        <rect class="cls-4" x="1" y="26" width="1" height="1"/>
        <rect class="cls-4" x="5" y="25" width="1" height="1"/>
        <rect class="cls-4" x="6" y="24" width="1" height="1"/>
        <rect class="cls-4" x="9" y="27" width="2" height="1"/>
        <rect class="cls-4" x="11" y="26" width="1" height="1"/>
        <rect class="cls-4" x="12" y="25" width="1" height="1"/>
        <rect class="cls-4" x="13" y="24" width="1" height="1"/>
        <rect class="cls-4" x="5" y="17" width="1" height="1"/>
        <rect class="cls-4" x="6" y="16" width="1" height="1"/>
        <rect class="cls-4" x="7" y="15" width="1" height="1"/>
        <rect class="cls-4" x="14" y="15" width="1" height="1"/>
        <rect class="cls-3" x="5" y="18" width="1" height="1"/>
        <rect class="cls-3" x="6" y="17" width="1" height="1"/>
        <rect class="cls-3" x="7" y="16" width="1" height="1"/>
        <rect class="cls-3" x="8" y="15" width="2" height="1"/>
        <rect class="cls-3" x="11" y="27" width="1" height="1"/>
        <rect class="cls-3" x="12" y="26" width="1" height="1"/>
        <rect class="cls-3" x="10" y="24" width="1" height="1"/>
        <rect class="cls-3" x="12" y="20" width="1" height="1"/>
        <rect class="cls-3" x="13" y="18" width="1" height="1"/>
        <rect class="cls-3" x="14" y="16" width="1" height="1"/>
        <rect class="cls-5" x="13" y="19" width="1" height="1"/>
        <rect class="cls-5" x="11" y="22" width="1" height="1"/>
        <rect class="cls-5" x="14" y="17" width="1" height="1"/>
        <rect class="cls-5" x="14" y="14" width="1" height="1"/>
        <rect class="cls-5" x="13" y="13" width="1" height="1"/>
        <rect class="cls-5" x="11" y="14" width="1" height="1"/>
        <rect class="cls-5" x="9" y="17" width="1" height="1"/>
        <rect class="cls-5" x="8" y="19" width="1" height="1"/>
        <rect class="cls-3" x="13" y="25" width="1" height="1"/>
        <rect class="cls-3" x="14" y="23" width="1" height="2"/>
        <path class="cls-2" d="M10,22h1v-2h1v-2h1v-2h1v-2h-1v-1h-1v2h-1v-1h-1v-1h-3v1h-2v1h-1v1h-1v1h-1v2h-1v2H0v4h1v1h1v1h2v-1h1v-1h1v-1h2v3h3v-1h1v-1h1v-1h1v-1h-2v1h-1v1h-1v-3ZM7,21v1h-1v1h-1v1h-2v-4h1v-2h1v-1h1v-1h1v-1h3v3h-1v2h-1v1h-1Z"/>
      </g>
    </g>
  </g>
</svg>